<svg width="300" height="51.842" xmlns="http://www.w3.org/2000/svg"><path d="M294.51 3.94C290.687 1.32 284.901 0 277.317 0h-19.862l-7.384 40.087h-26.02l1.672-9.095h15.674l1.858-10.215-15.665.023 1.677-9.055h16.145L247.56.002h-32.787l-7.01 38.025H195.73L202.788 0H185.65l-7.01 38.025h-11.72L173.981 0h-17.13l-7.393 40.087h-26.207l1.657-9.095h15.737l1.86-10.157-15.723-.015 1.668-9.073h16.326L146.912 0H44.742l-5.815 31.766L27.346 0H9.564l-9.57 51.842h16.981L22.768 19.2l11.238 32.642h60.862l7.4-40.099h9.518l-7.4 40.1h160.14l4.644-25.313 7.51 25.312h16.991l-7.783-20.683 1.78-.383c3.923-.84 6.981-2.646 9.111-5.353 2.128-2.732 3.212-6.24 3.212-10.452 0-4.905-1.794-8.513-5.486-11.033zM80.09 40.087H54.095l1.68-9.095h16.304l1.849-10.244H57.778l1.556-9h25.957l-5.207 28.339zm200.42-17.462c-1.708 1.195-4.186 1.776-7.573 1.776h-3.359l2.576-13.912h2.47c2.814 0 4.865.45 6.28 1.37 1.105.722 2.419 2.149 2.419 4.847-.004 3.263-1.533 5.017-2.818 5.919z" fill="#83ba3b"/></svg>